<?xml version="1.0" encoding="UTF-8" standalone="no"?>
<!-- Created with Inkscape (http://www.inkscape.org/) -->

<svg
   xmlns:dc="http://purl.org/dc/elements/1.1/"
   xmlns:cc="http://creativecommons.org/ns#"
   xmlns:rdf="http://www.w3.org/1999/02/22-rdf-syntax-ns#"
   xmlns:svg="http://www.w3.org/2000/svg"
   xmlns="http://www.w3.org/2000/svg"
   xmlns:sodipodi="http://sodipodi.sourceforge.net/DTD/sodipodi-0.dtd"
   xmlns:inkscape="http://www.inkscape.org/namespaces/inkscape"
   width="190.5mm"
   height="62.719185mm"
   viewBox="0 0 190.5 62.719185"
   version="1.1"
   id="svg8"
   inkscape:version="0.92.2 (5c3e80d, 2017-08-06)"
   sodipodi:docname="logo2021.svg">
  <defs
     id="defs2">
    <clipPath
       id="clipPath3719"
       clipPathUnits="userSpaceOnUse">
      <path
         inkscape:connector-curvature="0"
         id="path3717"
         d="M 0,595.28 H 841.89 V 0 H 0 Z" />
    </clipPath>
  </defs>
  <sodipodi:namedview
     id="base"
     pagecolor="#ffffff"
     bordercolor="#666666"
     borderopacity="1.0"
     inkscape:pageopacity="0.0"
     inkscape:pageshadow="2"
     inkscape:zoom="1.4"
     inkscape:cx="397.4359"
     inkscape:cy="-271.30323"
     inkscape:document-units="mm"
     inkscape:current-layer="layer1"
     showgrid="false"
     inkscape:window-width="3840"
     inkscape:window-height="2035"
     inkscape:window-x="-13"
     inkscape:window-y="-13"
     inkscape:window-maximized="1"
     showborder="true"
     fit-margin-top="0"
     fit-margin-left="0"
     fit-margin-right="0"
     fit-margin-bottom="0" />
  <metadata
     id="metadata5">
    <rdf:RDF>
      <cc:Work
         rdf:about="">
        <dc:format>image/svg+xml</dc:format>
        <dc:type
           rdf:resource="http://purl.org/dc/dcmitype/StillImage" />
        <dc:title></dc:title>
      </cc:Work>
    </rdf:RDF>
  </metadata>
  <g
     inkscape:label="Layer 1"
     inkscape:groupmode="layer"
     id="layer1"
     transform="translate(-9.0121649,-14.331839)">
    <g
       transform="matrix(0.25431858,0,0,-0.25431858,-5.4057912,115.25832)"
       inkscape:label="Nykvarn_logo_SV"
       id="g3707">
      <g
         transform="translate(143.9487,352.6865)"
         id="g3709">
        <path
           inkscape:connector-curvature="0"
           id="path3711"
           style="fill:none;stroke:#1a171b;stroke-width:0.44;stroke-linecap:butt;stroke-linejoin:miter;stroke-miterlimit:4;stroke-dasharray:none;stroke-opacity:1"
           d="M 0,0 H 0.533" />
      </g>
      <g
         id="g3713">
        <g
           clip-path="url(#clipPath3719)"
           id="g3715">
          <g
             transform="translate(57.0815,396.8506)"
             id="g3721">
            <path
               inkscape:connector-curvature="0"
               id="path3723"
               style="fill:#1a171b;fill-opacity:1;fill-rule:nonzero;stroke:none"
               d="m 0,0 h 174.955 c 0,0 -0.389,-92.324 -0.389,-113.273 0,-55.086 -40.73,-89.614 -86.992,-89.614 -48.781,0 -87.963,38.407 -87.963,90 C -0.389,-61.293 0,0 0,0" />
          </g>
          <g
             transform="translate(149.5562,366.5537)"
             id="g3725">
            <path
               inkscape:connector-curvature="0"
               id="path3727"
               style="fill:#ffffff;fill-opacity:1;fill-rule:nonzero;stroke:none"
               d="m 0,0 c 3.361,-2.199 14.094,-10.344 17.586,-15 1.74,-2.324 3.879,-3.23 7.24,-3.23 1.701,0 13.211,0.535 25.606,5.3 11.765,4.524 30.177,12.539 19.654,19.785 -7.889,5.43 -17.584,4.459 -22.111,4.395 C 38.791,11.123 33.752,9.027 27.543,8.793 13.705,8.277 8.814,7.686 3.49,6.207 1.162,5.561 0.387,4.656 0.131,3.492 -0.129,2.328 -0.26,1.555 -0.129,0.262" />
          </g>
          <g
             transform="translate(144.3823,377.9326)"
             id="g3729">
            <path
               inkscape:connector-curvature="0"
               id="path3731"
               style="fill:#ffffff;fill-opacity:1;fill-rule:nonzero;stroke:none"
               d="m 0,0 c 0.516,0.131 0.777,0.389 0.777,1.164 0,0.777 -0.261,1.551 0.129,2.07 C 1.293,3.75 2.539,4.355 2.844,5.043 3.363,6.207 2.621,6.617 2.006,5.691 1.617,5.109 1.035,3.848 -0.031,3.848 h -0.258 c -1.066,0 -1.649,1.261 -2.035,1.843 -0.619,0.926 -1.36,0.516 -0.842,-0.648 0.307,-0.688 1.553,-1.293 1.939,-1.809 0.387,-0.519 0.129,-1.293 0.129,-2.07 0,-0.775 0.258,-1.033 0.776,-1.164 z" />
          </g>
          <g
             transform="translate(144.3823,376.6416)"
             id="g3733">
            <path
               inkscape:connector-curvature="0"
               id="path3735"
               style="fill:#ffffff;fill-opacity:1;fill-rule:nonzero;stroke:none"
               d="m 0,0 h -0.191 c -0.971,0 -0.778,0.873 -2.329,0 -1.55,-0.873 -1.164,-1.26 0.291,-1.357 1.456,-0.098 0.874,0.582 1.94,0.582 h 0.258 c 1.066,0 0.484,-0.68 1.937,-0.582 C 3.363,-1.26 3.75,-0.873 2.199,0 0.646,0.873 0.84,0 -0.129,0" />
          </g>
          <g
             transform="translate(139.73,379.8428)"
             id="g3737">
            <path
               inkscape:connector-curvature="0"
               id="path3739"
               style="fill:#ffffff;fill-opacity:1;fill-rule:nonzero;stroke:none"
               d="m 0,0 c -0.828,-0.826 -0.875,-1.941 -0.291,-2.328 0.58,-0.389 0.969,-0.195 1.455,0.484 0.484,0.678 1.647,2.035 0.871,2.522 C 1.262,1.164 0.678,0.678 0,0" />
          </g>
          <g
             transform="translate(144.5464,360.9287)"
             id="g3741">
            <path
               inkscape:connector-curvature="0"
               id="path3743"
               style="fill:#ffffff;fill-opacity:1;fill-rule:nonzero;stroke:none"
               d="M 0,0 C 1.047,0.219 1.258,0.875 2.617,0.973 3.975,1.068 3.975,2.813 4.002,4 c 0.068,2.906 0.582,7.08 -0.291,8.148 -0.566,0.69 -1.359,0.387 -1.262,-0.39 0.098,-0.776 0,-1.551 0,-2.617 0,-1.067 -0.679,-0.196 -0.679,0.386 0,0.582 -0.485,0.291 -0.485,1.069 0,1.552 -0.207,2.256 -1.162,2.424 -0.682,0.119 -0.896,0 -0.896,0 -0.969,0 -1.165,-0.872 -1.165,-2.424 0,-0.778 -0.484,-0.487 -0.484,-1.069 0,-0.582 -0.68,-1.453 -0.68,-0.386 0,1.066 -0.097,1.841 0,2.617 0.098,0.777 -0.695,1.08 -1.259,0.39 C -5.234,11.08 -4.721,6.906 -4.652,4 -4.621,2.813 -4.621,1.068 -3.266,0.973 -1.906,0.875 -1.713,0.098 -0.646,0 c 0,0 0.173,-0.096 0.646,0" />
          </g>
          <g
             transform="translate(139.1987,364.8428)"
             id="g3745">
            <path
               inkscape:connector-curvature="0"
               id="path3747"
               style="fill:#ffffff;fill-opacity:1;fill-rule:nonzero;stroke:none"
               d="m 0,0 c 0.141,-5.82 -0.25,-12.539 -4.709,-15.555 -4.455,-3.015 -7.689,-2.953 -9.877,-2.39 -2.187,0.562 -2.629,4.451 1.854,8.629 C -8.252,-5.137 -2.738,-1.107 0,0" />
          </g>
          <g
             transform="translate(138.8862,366.5537)"
             id="g3749">
            <path
               inkscape:connector-curvature="0"
               id="path3751"
               style="fill:#ffffff;fill-opacity:1;fill-rule:nonzero;stroke:none"
               d="m 0,0 c -3.359,-2.199 -14.092,-10.344 -17.582,-15 -1.746,-2.324 -3.881,-3.23 -7.245,-3.23 -1.7,0 -13.208,0.535 -25.603,5.3 -11.766,4.524 -30.178,12.539 -19.654,19.785 7.888,5.43 17.584,4.459 22.111,4.395 9.182,-0.127 14.224,-2.223 20.43,-2.457 C -13.705,8.277 -8.813,7.686 -3.49,6.207 -1.164,5.561 -0.387,4.656 -0.127,3.492 0.129,2.328 0.262,1.555 0.129,0.262" />
          </g>
          <g
             transform="translate(148.7144,379.8428)"
             id="g3753">
            <path
               inkscape:connector-curvature="0"
               id="path3755"
               style="fill:#ffffff;fill-opacity:1;fill-rule:nonzero;stroke:none"
               d="M 0,0 C 0.826,-0.826 0.873,-1.941 0.293,-2.328 -0.289,-2.717 -0.678,-2.523 -1.164,-1.844 -1.648,-1.166 -2.813,0.191 -2.035,0.678 -1.26,1.164 -0.678,0.678 0,0" />
          </g>
          <g
             transform="translate(149.4272,365.0029)"
             id="g3757">
            <path
               inkscape:connector-curvature="0"
               id="path3759"
               style="fill:#ffffff;fill-opacity:1;fill-rule:nonzero;stroke:none"
               d="m 0,0 c -0.26,-5.82 0,-12.543 4.396,-15.645 4.395,-3.105 7.629,-3.105 9.827,-2.585 2.197,0.515 2.716,4.394 -1.68,8.66 C 8.146,-5.303 2.715,-1.164 0,0" />
          </g>
          <g
             transform="translate(87.9409,374.8311)"
             id="g3761">
            <path
               inkscape:connector-curvature="0"
               id="path3763"
               style="fill:#1a171b;fill-opacity:1;fill-rule:nonzero;stroke:none"
               d="m 0,0 c 4.524,0.387 18.884,-1.592 23.015,-1.809 19.657,-1.035 23.018,-2.199 24.571,-2.33 1.551,-0.131 3.863,-1.681 0.906,-1.293 -7.89,1.036 -18.371,1.743 -22.374,2.071 C 16.42,-2.566 2.878,-0.16 0,0" />
          </g>
          <g
             transform="translate(200.5034,374.8311)"
             id="g3765">
            <path
               inkscape:connector-curvature="0"
               id="path3767"
               style="fill:#1a171b;fill-opacity:1;fill-rule:nonzero;stroke:none"
               d="m 0,0 c -4.523,0.387 -18.885,-1.592 -23.018,-1.809 -19.654,-1.035 -23.013,-2.199 -24.568,-2.33 -1.551,-0.131 -3.867,-1.681 -0.906,-1.293 7.89,1.036 18.367,1.743 22.371,2.071 C -16.418,-2.566 -2.879,-0.16 0,0" />
          </g>
          <g
             transform="translate(144.0933,352.6865)"
             id="g3769">
            <path
               inkscape:connector-curvature="0"
               id="path3771"
               style="fill:#ffffff;fill-opacity:1;fill-rule:nonzero;stroke:none"
               d="m 0,0 c -2.813,0 -3.297,0.387 -3.297,1.066 0,0.68 -0.098,1.942 -0.098,1.942 H 0 3.652 c 0,0 -0.097,-1.262 -0.097,-1.942 C 3.555,0.387 3.07,0 0.258,0" />
          </g>
          <g
             transform="translate(144.3511,343.9561)"
             id="g3773">
            <path
               inkscape:connector-curvature="0"
               id="path3775"
               style="fill:#ffffff;fill-opacity:1;fill-rule:nonzero;stroke:none"
               d="m 0,0 c 2.23,0 3.006,0.195 3.104,1.166 0.095,0.971 0,2.424 0,2.424 0,0 -2.133,-0.098 -3.104,-0.098 h -0.258 c -0.969,0 -3.101,0.098 -3.101,0.098 0,0 -0.098,-1.453 0,-2.424 C -3.266,0.195 -2.488,0 -0.258,0 Z" />
          </g>
          <g
             transform="translate(144.3472,333.1943)"
             id="g3777">
            <path
               inkscape:connector-curvature="0"
               id="path3779"
               style="fill:#ffffff;fill-opacity:1;fill-rule:nonzero;stroke:none"
               d="m 0,0 h -0.252 -2.621 c 0,0 0.098,-2.135 0.193,-2.91 0.09,-0.717 1.172,-1.016 2.555,-1.059 C 1.258,-3.926 2.34,-3.627 2.43,-2.91 2.523,-2.135 2.621,0 2.621,0 Z" />
          </g>
          <g
             transform="translate(144.3511,324.7549)"
             id="g3781">
            <path
               inkscape:connector-curvature="0"
               id="path3783"
               style="fill:#ffffff;fill-opacity:1;fill-rule:nonzero;stroke:none"
               d="M 0,0 C 1.551,-0.291 2.426,1.65 2.52,2.232 2.617,2.813 2.328,3.104 1.648,3.104 0.971,3.104 0,3.102 0,3.102 h -0.258 c 0,0 -0.969,0.002 -1.648,0.002 -0.68,0 -0.971,-0.291 -0.873,-0.872 C -2.684,1.65 -1.811,-0.291 -0.258,0 Z" />
          </g>
          <g
             transform="translate(141.6675,324.7549)"
             id="g3785">
            <path
               inkscape:connector-curvature="0"
               id="path3787"
               style="fill:#ffffff;fill-opacity:1;fill-rule:nonzero;stroke:none"
               d="m 0,0 c 0.793,-0.66 -0.096,-1.162 -0.773,-1.939 -0.68,-0.776 -52.178,-52.207 -68.471,-84.02 7.24,16.035 19.138,36.465 66.982,84.826 C -1.098,0.162 -0.582,0.486 0,0" />
          </g>
          <g
             transform="translate(144.3511,359.2803)"
             id="g3789">
            <path
               inkscape:connector-curvature="0"
               id="path3791"
               style="fill:#ffffff;fill-opacity:1;fill-rule:nonzero;stroke:none"
               d="m 0,0 c 1.164,0 3.781,1.164 3.781,1.164 0,0 0,-2.424 -0.095,-2.812 -0.1,-0.387 -0.975,-0.582 -3.69,-0.68" />
          </g>
          <g
             transform="translate(144.0601,342.7939)"
             id="g3793">
            <path
               inkscape:connector-curvature="0"
               id="path3795"
               style="fill:#ffffff;fill-opacity:1;fill-rule:nonzero;stroke:none"
               d="m 0,0 c 1.357,0.002 2.908,0 2.908,0 0,0 0.098,-1.842 0.098,-2.619 0,-0.774 -1.067,-0.969 -3.006,-0.969" />
          </g>
          <g
             transform="translate(146.7769,324.7549)"
             id="g3797">
            <path
               inkscape:connector-curvature="0"
               id="path3799"
               style="fill:#ffffff;fill-opacity:1;fill-rule:nonzero;stroke:none"
               d="M 0,0 C -0.793,-0.66 0.094,-1.162 0.773,-1.939 1.453,-2.715 52.949,-54.146 69.246,-85.959 62.004,-69.924 50.105,-49.494 2.264,-1.133 1.098,0.162 0.58,0.486 0,0" />
          </g>
          <g
             transform="translate(146.8706,338.042)"
             id="g3801">
            <path
               inkscape:connector-curvature="0"
               id="path3803"
               style="fill:#ffffff;fill-opacity:1;fill-rule:nonzero;stroke:none"
               d="M 0,0 -2.488,0.086 V 0.098 L -2.648,0.094 -2.811,0.098 V 0.086 L -5.299,0 c 0,0 -0.389,-1.648 -0.291,-2.715 0.09,-0.996 1.699,-0.726 2.942,-0.687 1.238,-0.039 2.849,-0.309 2.941,0.687 C 0.391,-1.648 0,0 0,0" />
          </g>
          <g
             transform="translate(147.5503,351.7158)"
             id="g3805">
            <path
               inkscape:connector-curvature="0"
               id="path3807"
               style="fill:#ffffff;fill-opacity:1;fill-rule:nonzero;stroke:none"
               d="M 0,0 C 0,0 -1.453,-0.193 -3.199,-0.195 H -3.457 C -5.203,-0.193 -6.656,0 -6.656,0 c 0,0 -0.098,-0.58 0,-1.646 0.097,-1.069 1.066,-1.264 3.199,-1.264 h 0.258 c 2.133,0 3.103,0.195 3.199,1.264 C 0.098,-0.58 0,0 0,0" />
          </g>
          <g
             transform="translate(184.3413,250.7607)"
             id="g3809">
            <path
               inkscape:connector-curvature="0"
               id="path3811"
               style="fill:#ffffff;fill-opacity:1;fill-rule:nonzero;stroke:none"
               d="m 0,0 c 0,-22.82 -18.498,-41.316 -41.314,-41.316 -22.819,0 -41.315,18.496 -41.315,41.316 0,22.813 18.496,41.313 41.315,41.313 C -18.498,41.313 0,22.813 0,0" />
          </g>
          <g
             transform="translate(144.3608,356.9561)"
             id="g3813">
            <path
               inkscape:connector-curvature="0"
               id="path3815"
               style="fill:#ffffff;fill-opacity:1;fill-rule:nonzero;stroke:none"
               d="m 0,0 c -2.719,0.037 -3.855,0.289 -3.953,0.676 -0.096,0.388 -0.096,2.812 -0.096,2.812 0,0 2.617,-1.164 3.781,-1.164 h 0.389" />
          </g>
          <g
             transform="translate(173.6733,250.7607)"
             id="g3817">
            <path
               inkscape:connector-curvature="0"
               id="path3819"
               style="fill:#1a171b;fill-opacity:1;fill-rule:nonzero;stroke:none"
               d="m 0,0 c 0,-16.93 -13.723,-30.648 -30.646,-30.648 -16.926,0 -30.647,13.718 -30.647,30.648 0,16.922 13.721,30.645 30.647,30.645 C -13.723,30.645 0,16.922 0,0" />
          </g>
          <g
             transform="translate(144.3823,342.7939)"
             id="g3821">
            <path
               inkscape:connector-curvature="0"
               id="path3823"
               style="fill:#ffffff;fill-opacity:1;fill-rule:nonzero;stroke:none"
               d="m 0,0 c -1.355,0.002 -2.908,0 -2.908,0 0,0 -0.096,-1.842 -0.096,-2.619 0,-0.774 1.066,-0.969 3.004,-0.969" />
          </g>
          <g
             transform="translate(176.2261,233.624)"
             id="g3825">
            <path
               inkscape:connector-curvature="0"
               id="path3827"
               style="fill:#1a171b;fill-opacity:1;fill-rule:nonzero;stroke:none"
               d="m 0,0 c 0,-1.137 -0.922,-2.059 -2.059,-2.059 -1.14,0 -2.062,0.922 -2.062,2.059 0,1.141 0.922,2.063 2.062,2.063 C -0.922,2.063 0,1.141 0,0" />
          </g>
          <g
             transform="translate(174.9644,233.624)"
             id="g3829">
            <path
               inkscape:connector-curvature="0"
               id="path3831"
               style="fill:#ffffff;fill-opacity:1;fill-rule:nonzero;stroke:none"
               d="m 0,0 c 0,-0.426 -0.348,-0.777 -0.773,-0.777 -0.43,0 -0.778,0.351 -0.778,0.777 0,0.43 0.348,0.777 0.778,0.777 C -0.348,0.777 0,0.43 0,0" />
          </g>
          <g
             transform="translate(161.5073,219.0107)"
             id="g3833">
            <path
               inkscape:connector-curvature="0"
               id="path3835"
               style="fill:#1a171b;fill-opacity:1;fill-rule:nonzero;stroke:none"
               d="m 0,0 c 0,-1.137 -0.922,-2.055 -2.059,-2.055 -1.138,0 -2.06,0.918 -2.06,2.055 0,1.141 0.922,2.063 2.06,2.063 C -0.922,2.063 0,1.141 0,0" />
          </g>
          <g
             transform="translate(160.2456,219.0107)"
             id="g3837">
            <path
               inkscape:connector-curvature="0"
               id="path3839"
               style="fill:#ffffff;fill-opacity:1;fill-rule:nonzero;stroke:none"
               d="m 0,0 c 0,-0.426 -0.344,-0.773 -0.775,-0.773 -0.428,0 -0.776,0.347 -0.776,0.773 0,0.434 0.348,0.777 0.776,0.777 C -0.344,0.777 0,0.434 0,0" />
          </g>
          <g
             transform="translate(128.4058,218.7568)"
             id="g3841">
            <path
               inkscape:connector-curvature="0"
               id="path3843"
               style="fill:#1a171b;fill-opacity:1;fill-rule:nonzero;stroke:none"
               d="m 0,0 c 0,-1.141 -0.922,-2.063 -2.061,-2.063 -1.138,0 -2.06,0.922 -2.06,2.063 0,1.133 0.922,2.055 2.06,2.055 C -0.922,2.055 0,1.133 0,0" />
          </g>
          <g
             transform="translate(127.144,218.7568)"
             id="g3845">
            <path
               inkscape:connector-curvature="0"
               id="path3847"
               style="fill:#ffffff;fill-opacity:1;fill-rule:nonzero;stroke:none"
               d="m 0,0 c 0,-0.434 -0.348,-0.777 -0.775,-0.777 -0.428,0 -0.776,0.343 -0.776,0.777 0,0.426 0.348,0.773 0.776,0.773 C -0.348,0.773 0,0.426 0,0" />
          </g>
          <g
             transform="translate(113.6636,233.624)"
             id="g3849">
            <path
               inkscape:connector-curvature="0"
               id="path3851"
               style="fill:#1a171b;fill-opacity:1;fill-rule:nonzero;stroke:none"
               d="m 0,0 c 0,-1.137 -0.923,-2.059 -2.06,-2.059 -1.138,0 -2.06,0.922 -2.06,2.059 0,1.141 0.922,2.063 2.06,2.063 C -0.923,2.063 0,1.141 0,0" />
          </g>
          <g
             transform="translate(112.4028,233.624)"
             id="g3853">
            <path
               inkscape:connector-curvature="0"
               id="path3855"
               style="fill:#ffffff;fill-opacity:1;fill-rule:nonzero;stroke:none"
               d="m 0,0 c 0,-0.426 -0.347,-0.777 -0.775,-0.777 -0.43,0 -0.777,0.351 -0.777,0.777 0,0.43 0.347,0.777 0.777,0.777 C -0.347,0.777 0,0.43 0,0" />
          </g>
          <g
             transform="translate(113.9224,266.7256)"
             id="g3857">
            <path
               inkscape:connector-curvature="0"
               id="path3859"
               style="fill:#1a171b;fill-opacity:1;fill-rule:nonzero;stroke:none"
               d="m 0,0 c 0,-1.137 -0.923,-2.059 -2.06,-2.059 -1.139,0 -2.061,0.922 -2.061,2.059 0,1.141 0.922,2.059 2.061,2.059 C -0.923,2.059 0,1.141 0,0" />
          </g>
          <g
             transform="translate(112.6626,266.7256)"
             id="g3861">
            <path
               inkscape:connector-curvature="0"
               id="path3863"
               style="fill:#ffffff;fill-opacity:1;fill-rule:nonzero;stroke:none"
               d="m 0,0 c 0,-0.43 -0.349,-0.773 -0.776,-0.773 -0.431,0 -0.776,0.343 -0.776,0.773 0,0.43 0.345,0.777 0.776,0.777 C -0.349,0.777 0,0.43 0,0" />
          </g>
          <g
             transform="translate(128.146,281.7256)"
             id="g3865">
            <path
               inkscape:connector-curvature="0"
               id="path3867"
               style="fill:#1a171b;fill-opacity:1;fill-rule:nonzero;stroke:none"
               d="m 0,0 c 0,-1.137 -0.922,-2.059 -2.061,-2.059 -1.136,0 -2.058,0.922 -2.058,2.059 0,1.141 0.922,2.063 2.058,2.063 C -0.922,2.063 0,1.141 0,0" />
          </g>
          <g
             transform="translate(126.8862,281.7256)"
             id="g3869">
            <path
               inkscape:connector-curvature="0"
               id="path3871"
               style="fill:#ffffff;fill-opacity:1;fill-rule:nonzero;stroke:none"
               d="m 0,0 c 0,-0.426 -0.348,-0.773 -0.777,-0.773 -0.426,0 -0.776,0.347 -0.776,0.773 0,0.43 0.35,0.777 0.776,0.777 C -0.348,0.777 0,0.43 0,0" />
          </g>
          <g
             transform="translate(161.894,281.9873)"
             id="g3873">
            <path
               inkscape:connector-curvature="0"
               id="path3875"
               style="fill:#1a171b;fill-opacity:1;fill-rule:nonzero;stroke:none"
               d="m 0,0 c 0,-1.141 -0.922,-2.063 -2.059,-2.063 -1.136,0 -2.058,0.922 -2.058,2.063 0,1.137 0.922,2.059 2.058,2.059 C -0.922,2.059 0,1.137 0,0" />
          </g>
          <g
             transform="translate(160.6343,281.9873)"
             id="g3877">
            <path
               inkscape:connector-curvature="0"
               id="path3879"
               style="fill:#ffffff;fill-opacity:1;fill-rule:nonzero;stroke:none"
               d="m 0,0 c 0,-0.43 -0.346,-0.777 -0.775,-0.777 -0.428,0 -0.776,0.347 -0.776,0.777 0,0.426 0.348,0.773 0.776,0.773 C -0.346,0.773 0,0.426 0,0" />
          </g>
          <g
             transform="translate(176.894,267.5029)"
             id="g3881">
            <path
               inkscape:connector-curvature="0"
               id="path3883"
               style="fill:#1a171b;fill-opacity:1;fill-rule:nonzero;stroke:none"
               d="m 0,0 c 0,-1.137 -0.92,-2.059 -2.059,-2.059 -1.14,0 -2.06,0.922 -2.06,2.059 0,1.141 0.92,2.063 2.06,2.063 C -0.92,2.063 0,1.141 0,0" />
          </g>
          <g
             transform="translate(175.6362,267.5029)"
             id="g3885">
            <path
               inkscape:connector-curvature="0"
               id="path3887"
               style="fill:#ffffff;fill-opacity:1;fill-rule:nonzero;stroke:none"
               d="m 0,0 c 0,-0.426 -0.348,-0.777 -0.777,-0.777 -0.43,0 -0.776,0.351 -0.776,0.777 0,0.43 0.346,0.777 0.776,0.777 C -0.348,0.777 0,0.43 0,0" />
          </g>
          <g
             transform="translate(127.4019,275.499)"
             id="g3889">
            <path
               inkscape:connector-curvature="0"
               id="path3891"
               style="fill:#ffffff;fill-opacity:1;fill-rule:nonzero;stroke:none"
               d="m 0,0 40.367,-40.367 c 1.449,2.289 2.59,4.785 3.363,7.449 L 6.906,3.227 C 4.441,2.461 2.133,1.355 0,0" />
          </g>
          <g
             transform="translate(149.5229,266.2764)"
             id="g3893">
            <path
               inkscape:connector-curvature="0"
               id="path3895"
               style="fill:#ffffff;fill-opacity:1;fill-rule:nonzero;stroke:none"
               d="M 0,0 9.004,9.043 C 6.715,10.496 4.219,11.637 1.559,12.41 L -5.428,5.238 Z" />
          </g>
          <g
             transform="translate(126.9272,243.7764)"
             id="g3897">
            <path
               inkscape:connector-curvature="0"
               id="path3899"
               style="fill:#ffffff;fill-opacity:1;fill-rule:nonzero;stroke:none"
               d="m 0,0 -8.768,-8.824 c -1.353,2.136 -2.461,4.445 -3.227,6.906 l 6.856,6.863 z" />
          </g>
          <g
             transform="translate(129.3804,256.5732)"
             id="g3901">
            <path
               inkscape:connector-curvature="0"
               id="path3903"
               style="fill:#ffffff;fill-opacity:1;fill-rule:nonzero;stroke:none"
               d="M 0,0 7.174,7.313 12.385,2.137 5.131,-5.266 Z" />
          </g>
          <g
             transform="translate(164.2651,251.8271)"
             id="g3905">
            <path
               inkscape:connector-curvature="0"
               id="path3907"
               style="fill:#ffffff;fill-opacity:1;fill-rule:nonzero;stroke:none"
               d="M 0,0 6.986,7.094 C 6.215,9.559 5.109,11.863 3.754,14 L -5.141,5.039 Z" />
          </g>
          <g
             transform="translate(141.8628,228.9365)"
             id="g3909">
            <path
               inkscape:connector-curvature="0"
               id="path3911"
               style="fill:#ffffff;fill-opacity:1;fill-rule:nonzero;stroke:none"
               d="m 0,0 -6.766,-6.84 c -2.656,0.77 -5.152,1.914 -7.441,3.363 l 8.68,8.715 C -5.289,4.738 0,0 0,0" />
          </g>
          <g
             transform="translate(144.0327,241.835)"
             id="g3913">
            <path
               inkscape:connector-curvature="0"
               id="path3915"
               style="fill:#ffffff;fill-opacity:1;fill-rule:nonzero;stroke:none"
               d="M 0,0 7.141,7.18 12.424,2.016 5.313,-5.227 Z" />
          </g>
          <g
             transform="translate(158.2573,225.3271)"
             id="g3917">
            <path
               inkscape:connector-curvature="0"
               id="path3919"
               style="fill:#ffffff;fill-opacity:1;fill-rule:nonzero;stroke:none"
               d="m 0,0 -40.365,40.367 c -1.451,-2.289 -2.593,-4.785 -3.366,-7.445 L -6.906,-3.23 C -4.441,-2.461 -2.135,-1.355 0,0" />
          </g>
          <g
             transform="translate(136.0425,250.0811)"
             id="g3921">
            <path
               inkscape:connector-curvature="0"
               id="path3923"
               style="fill:#ffffff;fill-opacity:1;fill-rule:nonzero;stroke:none"
               d="M 0,0 6.984,7.176 13.965,0 6.887,-6.984 Z" />
          </g>
          <g
             transform="translate(159.73,250.1787)"
             id="g3925">
            <path
               inkscape:connector-curvature="0"
               id="path3927"
               style="fill:#1a171b;fill-opacity:1;fill-rule:nonzero;stroke:none"
               d="m 0,0 c 0,-1.141 -0.922,-2.063 -2.059,-2.063 -1.14,0 -2.062,0.922 -2.062,2.063 0,1.133 0.922,2.055 2.062,2.055 C -0.922,2.055 0,1.133 0,0" />
          </g>
          <g
             transform="translate(138.8237,250.0459)"
             id="g3929">
            <path
               inkscape:connector-curvature="0"
               id="path3931"
               style="fill:#1a171b;fill-opacity:1;fill-rule:nonzero;stroke:none"
               d="M 0,0 4.461,4.398 8.533,0.258 4.105,-4.234 Z" />
          </g>
          <g
             transform="translate(130.3218,250.2725)"
             id="g3933">
            <path
               inkscape:connector-curvature="0"
               id="path3935"
               style="fill:#1a171b;fill-opacity:1;fill-rule:nonzero;stroke:none"
               d="m 0,0 c 0,-1.137 -0.924,-2.059 -2.061,-2.059 -1.138,0 -2.062,0.922 -2.062,2.059 0,1.137 0.924,2.059 2.062,2.059 C -0.924,2.059 0,1.137 0,0" />
          </g>
          <g
             transform="translate(145.2808,264.8193)"
             id="g3937">
            <path
               inkscape:connector-curvature="0"
               id="path3939"
               style="fill:#1a171b;fill-opacity:1;fill-rule:nonzero;stroke:none"
               d="m 0,0 c 0,-1.137 -0.926,-2.059 -2.061,-2.059 -1.138,0 -2.06,0.922 -2.06,2.059 0,1.137 0.922,2.059 2.06,2.059 C -0.926,2.059 0,1.137 0,0" />
          </g>
          <g
             transform="translate(145.0854,235.4365)"
             id="g3941">
            <path
               inkscape:connector-curvature="0"
               id="path3943"
               style="fill:#1a171b;fill-opacity:1;fill-rule:nonzero;stroke:none"
               d="m 0,0 c 0,-1.141 -0.922,-2.063 -2.059,-2.063 -1.14,0 -2.062,0.922 -2.062,2.063 0,1.137 0.922,2.059 2.062,2.059 C -0.922,2.059 0,1.137 0,0" />
          </g>
          <g
             transform="translate(129.0601,250.2725)"
             id="g3945">
            <path
               inkscape:connector-curvature="0"
               id="path3947"
               style="fill:#ffffff;fill-opacity:1;fill-rule:nonzero;stroke:none"
               d="m 0,0 c 0,-0.43 -0.346,-0.773 -0.775,-0.773 -0.43,0 -0.774,0.343 -0.774,0.773 0,0.43 0.344,0.777 0.774,0.777 C -0.346,0.777 0,0.43 0,0" />
          </g>
          <g
             transform="translate(144.019,264.8193)"
             id="g3949">
            <path
               inkscape:connector-curvature="0"
               id="path3951"
               style="fill:#ffffff;fill-opacity:1;fill-rule:nonzero;stroke:none"
               d="m 0,0 c 0,-0.43 -0.348,-0.773 -0.775,-0.773 -0.43,0 -0.776,0.343 -0.776,0.773 0,0.43 0.346,0.777 0.776,0.777 C -0.348,0.777 0,0.43 0,0" />
          </g>
          <g
             transform="translate(158.4683,250.1787)"
             id="g3953">
            <path
               inkscape:connector-curvature="0"
               id="path3955"
               style="fill:#ffffff;fill-opacity:1;fill-rule:nonzero;stroke:none"
               d="m 0,0 c 0,-0.434 -0.346,-0.777 -0.775,-0.777 -0.428,0 -0.776,0.343 -0.776,0.777 0,0.426 0.348,0.773 0.776,0.773 C -0.346,0.773 0,0.426 0,0" />
          </g>
          <g
             transform="translate(143.8257,235.4365)"
             id="g3957">
            <path
               inkscape:connector-curvature="0"
               id="path3959"
               style="fill:#ffffff;fill-opacity:1;fill-rule:nonzero;stroke:none"
               d="m 0,0 c 0,-0.43 -0.346,-0.777 -0.775,-0.777 -0.43,0 -0.778,0.347 -0.778,0.777 0,0.426 0.348,0.773 0.778,0.773 C -0.346,0.773 0,0.426 0,0" />
          </g>
          <g
             transform="translate(279.1333,392.7979)"
             id="g3961">
            <path
               inkscape:connector-curvature="0"
               id="path3963"
               style="fill:#1a171b;fill-opacity:1;fill-rule:nonzero;stroke:none"
               d="m 0,0 61.154,-64.066 v 60.738 h 8.737 V -85.283 L 8.736,-21.321 V -81.747 H 0 Z" />
          </g>
          <g
             transform="translate(358.2769,389.4697)"
             id="g3965">
            <path
               inkscape:connector-curvature="0"
               id="path3967"
               style="fill:#1a171b;fill-opacity:1;fill-rule:nonzero;stroke:none"
               d="M 0,0 H 10.088 L 30.057,-34.945 50.026,0 H 60.114 L 34.425,-44.722 v -33.697 h -8.736 v 33.697 z" />
          </g>
          <g
             transform="translate(468.1016,389.4697)"
             id="g3969">
            <path
               inkscape:connector-curvature="0"
               id="path3971"
               style="fill:#1a171b;fill-opacity:1;fill-rule:nonzero;stroke:none"
               d="M 0,0 H 11.752 L -25.065,-36.505 13,-78.419 H 0.936 l -32.137,35.985 -2.185,-2.184 v -33.801 h -8.736 V 0 h 8.736 v -33.593 z" />
          </g>
          <g
             transform="translate(514.0674,329.6675)"
             id="g3973">
            <path
               inkscape:connector-curvature="0"
               id="path3975"
               style="fill:#1a171b;fill-opacity:1;fill-rule:nonzero;stroke:none"
               d="m 0,0 22.36,59.802 h 9.465 L 0,-23.297 -31.825,59.802 h 9.465 z" />
          </g>
          <g
             transform="translate(572.7383,372.8291)"
             id="g3977">
            <path
               inkscape:connector-curvature="0"
               id="path3979"
               style="fill:#1a171b;fill-opacity:1;fill-rule:nonzero;stroke:none"
               d="m 0,0 -13.416,-31.409 h 26.52 z m -16.953,-39.521 -9.464,-22.257 h -9.568 L 0.208,20.385 35.465,-61.778 h -9.672 l -9.256,22.257 z" />
          </g>
          <g
             transform="translate(625.4648,353.1724)"
             id="g3981">
            <path
               inkscape:connector-curvature="0"
               id="path3983"
               style="fill:#1a171b;fill-opacity:1;fill-rule:nonzero;stroke:none"
               d="m 0,0 h 2.704 c 9.88,0 19.864,1.872 19.864,14.041 0,12.896 -9.464,14.144 -19.968,14.144 H 0 Z M 0,-42.122 H -8.736 V 36.297 H 2.6 c 14.873,0 28.705,-3.952 28.705,-21.632 C 31.305,2.6 23.713,-5.928 11.648,-6.968 L 36.609,-42.122 H 25.896 L 2.184,-7.696 H 0 Z" />
          </g>
          <g
             transform="translate(673.6152,392.7979)"
             id="g3985">
            <path
               inkscape:connector-curvature="0"
               id="path3987"
               style="fill:#1a171b;fill-opacity:1;fill-rule:nonzero;stroke:none"
               d="m 0,0 61.154,-64.066 v 60.738 h 8.737 V -85.283 L 8.736,-21.321 V -81.747 H 0 Z" />
          </g>
          <g
             transform="translate(793.8418,374.1812)"
             id="g3989">
            <path
               inkscape:connector-curvature="0"
               id="path3991"
               style="fill:#1a171b;fill-opacity:1;fill-rule:nonzero;stroke:none"
               d="m 0,0 c -3.12,5.408 -6.864,8.528 -13.521,8.528 -6.967,0 -13,-4.992 -13,-12.168 0,-6.76 6.968,-9.881 12.273,-12.273 l 5.199,-2.288 c 10.194,-4.472 18.825,-9.568 18.825,-22.049 0,-13.728 -11.024,-24.232 -24.649,-24.232 -12.584,0 -21.944,8.112 -24.44,20.28 l 8.528,2.392 c 1.144,-8.008 7.28,-14.56 15.705,-14.56 8.424,0 16.12,6.448 16.12,15.288 0,9.153 -7.177,12.273 -14.456,15.601 l -4.785,2.08 c -9.153,4.16 -17.057,8.84 -17.057,20.073 0,12.168 10.297,19.969 21.945,19.969 8.737,0 16.122,-4.473 20.282,-12.169 z" />
          </g>
          <g
             transform="translate(320.7349,287.4697)"
             id="g3993">
            <path
               inkscape:connector-curvature="0"
               id="path3995"
               style="fill:#1a171b;fill-opacity:1;fill-rule:nonzero;stroke:none"
               d="M 0,0 H 11.752 L -25.065,-36.505 13,-78.419 H 0.936 l -32.137,35.985 -2.184,-2.184 v -33.801 h -8.737 V 0 h 8.737 v -33.593 z" />
          </g>
          <g
             transform="translate(344.3403,248.2598)"
             id="g3997">
            <path
               inkscape:connector-curvature="0"
               id="path3999"
               style="fill:#1a171b;fill-opacity:1;fill-rule:nonzero;stroke:none"
               d="m 0,0 c 0,-17.68 14.353,-32.449 32.137,-32.449 17.784,0 32.138,14.769 32.138,32.449 0,17.785 -14.145,32.449 -32.138,32.449 C 14.145,32.449 0,17.785 0,0 m 73.011,-0.104 c 0,-22.568 -18.513,-40.457 -40.874,-40.457 -22.361,0 -40.873,17.889 -40.873,40.457 0,22.465 18.512,40.667 40.873,40.667 22.361,0 40.874,-18.202 40.874,-40.667" />
          </g>
          <g
             transform="translate(439.917,291.9414)"
             id="g4001">
            <path
               inkscape:connector-curvature="0"
               id="path4003"
               style="fill:#1a171b;fill-opacity:1;fill-rule:nonzero;stroke:none"
               d="M 0,0 28.497,-65.834 57.099,0 73.011,-82.891 H 64.066 L 53.978,-29.849 H 53.771 L 28.497,-86.115 3.328,-29.849 H 3.12 L -6.968,-82.891 h -8.945 z" />
          </g>
          <g
             transform="translate(533.1006,291.9414)"
             id="g4005">
            <path
               inkscape:connector-curvature="0"
               id="path4007"
               style="fill:#1a171b;fill-opacity:1;fill-rule:nonzero;stroke:none"
               d="M 0,0 28.497,-65.834 57.099,0 73.011,-82.891 H 64.066 L 53.978,-29.849 H 53.771 L 28.497,-86.115 3.328,-29.849 H 3.12 L -6.968,-82.891 h -8.945 z" />
          </g>
          <g
             transform="translate(624.6201,240.7715)"
             id="g4009">
            <path
               inkscape:connector-curvature="0"
               id="path4011"
               style="fill:#1a171b;fill-opacity:1;fill-rule:nonzero;stroke:none"
               d="m 0,0 c 0,-5.824 -0.208,-12.48 3.433,-17.473 3.431,-4.783 10.088,-7.488 15.808,-7.488 5.615,0 11.752,2.601 15.393,6.969 C 38.794,-13 38.481,-6.136 38.481,0 v 46.698 h 8.737 v -49.09 c 0,-8.528 -0.624,-15.288 -6.864,-21.737 -5.409,-5.824 -13.208,-8.943 -21.113,-8.943 -7.385,0 -14.976,2.807 -20.281,8.008 -6.864,6.552 -7.696,13.728 -7.696,22.672 v 49.09 H 0 Z" />
          </g>
          <g
             transform="translate(687.332,290.7979)"
             id="g4013">
            <path
               inkscape:connector-curvature="0"
               id="path4015"
               style="fill:#1a171b;fill-opacity:1;fill-rule:nonzero;stroke:none"
               d="m 0,0 61.154,-64.066 v 60.738 h 8.737 V -85.283 L 8.736,-21.321 V -81.747 H 0 Z" />
          </g>
          <path
             inkscape:connector-curvature="0"
             id="path4017"
             style="fill:#1a171b;fill-opacity:1;fill-rule:nonzero;stroke:none"
             d="M 805.753,164.407 H 56.693 v -14.173 h 749.06 z" />
        </g>
      </g>
    </g>
  </g>
</svg>
